0
SECTION
2
HEADER
9
$INSUNITS
70
4
9
$ACADVER
1
AC1014
9
$HANDSEED
5
FFFF
0
ENDSEC
0
SECTION
2
TABLES
0
TABLE
2
VPORT
5
8
100
AcDbSymbolTable
0
ENDTAB
0
TABLE
2
LTYPE
5
5
100
AcDbSymbolTable
0
LTYPE
5
14
100
AcDbSymbolTableRecord
100
AcDbLinetypeTableRecord
2
BYBLOCK
70
0
0
LTYPE
5
15
100
AcDbSymbolTableRecord
100
AcDbLinetypeTableRecord
2
BYLAYER
70
0
0
LTYPE
5
16
100
AcDbSymbolTableRecord
100
AcDbLinetypeTableRecord
2
DASHED
70
0
3
Dashed __ __ __ __ __ __ __ __ __ __ __ __ __ _
72
65
73
2
40
0.75
49
0.5
74
0
49
-0.25
74
0
0
ENDTAB
0
TABLE
2
LAYER
5
2
100
AcDbSymbolTable
70
2
0
LAYER
5
50
100
AcDbSymbolTableRecord
100
AcDbLayerTableRecord
2
0
70
0
62
7
6
CONTINUOUS
0
ENDTAB
0
TABLE
2
STYLE
5
3
100
AcDbSymbolTable
70
1
0
STYLE
5
11
100
AcDbSymbolTableRecord
100
AcDbTextStyleTableRecord
2
STANDARD
70
0
0
ENDTAB
0
TABLE
2
VIEW
5
6
100
AcDbSymbolTable
70
0
0
ENDTAB
0
TABLE
2
UCS
5
7
100
AcDbSymbolTable
70
0
0
ENDTAB
0
TABLE
2
APPID
5
9
100
AcDbSymbolTable
70
2
0
APPID
5
12
100
AcDbSymbolTableRecord
100
AcDbRegAppTableRecord
2
ACAD
70
0
0
ENDTAB
0
TABLE
2
DIMSTYLE
5
A
100
AcDbSymbolTable
70
1
0
ENDTAB
0
TABLE
2
BLOCK_RECORD
5
1
100
AcDbSymbolTable
70
1
0
BLOCK_RECORD
5
1F
100
AcDbSymbolTableRecord
100
AcDbBlockTableRecord
2
*MODEL_SPACE
0
BLOCK_RECORD
5
1B
100
AcDbSymbolTableRecord
100
AcDbBlockTableRecord
2
*PAPER_SPACE
0
ENDTAB
0
ENDSEC
0
SECTION
2
BLOCKS
0
BLOCK
5
20
100
AcDbEntity
100
AcDbBlockBegin
2
*MODEL_SPACE
0
ENDBLK
5
21
100
AcDbEntity
100
AcDbBlockEnd
0
BLOCK
5
1C
100
AcDbEntity
100
AcDbBlockBegin
2
*PAPER_SPACE
0
ENDBLK
5
1D
100
AcDbEntity
100
AcDbBlockEnd
0
ENDSEC
0
SECTION
2
ENTITIES
0
LWPOLYLINE
5
100
100
AcDbEntity
8
0
100
AcDbPolyline
90
8
70
1
43
0.0
10
60.931505991257183
20
51.849449811079005
10
62.104295999357184
20
51.849449811079005
42
0.41421356237309509
10
63.104295999357191
20
52.849449811079012
10
63.104295999357191
20
69.081606278079008
42
0.41421356237309509
10
62.104295999357191
20
70.081606278078993
10
60.931505991257183
20
70.081606278078993
42
0.41421356237309509
10
59.93150599125719
20
69.081606278079008
10
59.93150599125719
20
52.849449811078998
42
0.41421356237309509
0
ARC
5
101
100
AcDbEntity
8
0
100
AcDbCircle
10
104.7968308247885
20
24.600010679999734
30
0
40
1.9999999999999973
210
0
220
0
230
1
100
AcDbArc
50
270
51
359.98796519727222
0
LINE
5
102
100
AcDbEntity
8
0
100
AcDbLine
10
106.79683078066878
20
24.599590586137239
30
0
11
106.81279412743352
21
100.598541476946
31
0
0
ARC
5
103
100
AcDbEntity
8
0
100
AcDbCircle
10
104.81279417155324
20
100.59896157080848
30
0
40
1.9999999999999942
210
0
220
0
230
1
100
AcDbArc
50
-0.012034802727780548
51
89.98796203219878
0
LINE
5
104
100
AcDbEntity
8
0
100
AcDbLine
10
104.81321437589691
20
102.59896152666555
30
0
11
23.803576814967592
21
102.61598182783223
31
0
0
ARC
5
105
100
AcDbEntity
8
0
100
AcDbCircle
10
23.803156610623923
20
100.61598187197515
30
0
40
2.0000000000000044
210
0
220
-0
230
1
100
AcDbArc
50
89.98796203219878
51
179.98793039631659
0
LINE
5
106
100
AcDbEntity
8
0
100
AcDbLine
10
21.803156654999164
20
100.61640318062001
30
0
11
21.787143561738635
21
24.600431988644608
31
0
0
ARC
5
107
100
AcDbEntity
8
0
100
AcDbCircle
10
23.787143517363397
20
24.600010679999748
30
0
40
2.0000000000000044
210
0
220
0
230
1
100
AcDbArc
50
179.98793039631659
51
270
0
LINE
5
108
100
AcDbEntity
8
0
100
AcDbLine
10
57.836836356168114
20
22.975010679999741
30
0
11
57.836836356168114
21
43.305006159992026
31
0
0
LINE
5
109
100
AcDbEntity
8
0
100
AcDbLine
10
58.211836356168114
20
43.680006159992018
30
0
11
74.603250976166379
21
43.680006159992068
31
0
0
LINE
5
110
100
AcDbEntity
8
0
100
AcDbLine
10
74.978250976166379
20
43.305006159992068
30
0
11
74.978250976166379
21
42.024904941921363
31
0
0
LINE
5
111
100
AcDbEntity
8
0
100
AcDbLine
10
75.353250976166365
20
41.649904941921363
30
0
11
82.574567798112653
21
41.649904930993515
31
0
0
LINE
5
112
100
AcDbEntity
8
0
100
AcDbLine
10
82.949567582267179
20
41.274904930993515
30
0
11
82.949567582267179
21
22.975010679999738
31
0
0
LINE
5
113
100
AcDbEntity
8
0
100
AcDbLine
10
23.787143517363397
20
22.600010679999741
30
0
11
57.461836356168106
21
22.600010679999741
31
0
0
LINE
5
114
100
AcDbEntity
8
0
100
AcDbLine
10
83.324567582267179
20
22.600010679999741
30
0
11
104.7968308247885
21
22.600010679999734
31
0
0
ARC
5
115
100
AcDbEntity
8
0
100
AcDbCircle
10
57.461836356168106
20
22.975010679999741
30
0
40
0.37500000000000089
210
-0
220
0
230
1
100
AcDbArc
50
-90
51
0
0
ARC
5
116
100
AcDbEntity
8
0
100
AcDbCircle
10
83.324567582267179
20
22.975010679999738
30
0
40
0.37499999999999645
210
0
220
0
230
1
100
AcDbArc
50
180
51
270
0
ARC
5
117
100
AcDbEntity
8
0
100
AcDbCircle
10
82.574567798112653
20
41.274904930993515
30
0
40
0.37499999999999645
210
0
220
-0
230
1
100
AcDbArc
50
0
51
90
0
ARC
5
118
100
AcDbEntity
8
0
100
AcDbCircle
10
75.353250976166365
20
42.024904941921363
30
0
40
0.37499999999999645
210
0
220
0
230
1
100
AcDbArc
50
180
51
270
0
ARC
5
119
100
AcDbEntity
8
0
100
AcDbCircle
10
58.211836356168114
20
43.305006159992026
30
0
40
0.37499999999999645
210
0
220
-0
230
1
100
AcDbArc
50
90
51
180
0
ARC
5
120
100
AcDbEntity
8
0
100
AcDbCircle
10
74.603250976166379
20
43.305006159992068
30
0
40
0.37499999999999645
210
0
220
-0
230
1
100
AcDbArc
50
0
51
90
0
CIRCLE
5
121
100
AcDbEntity
8
0
100
AcDbCircle
10
54.246834416168127
20
25.059713659999744
30
0
40
1.3499998399999984
210
0
220
0
230
1
0
CIRCLE
5
122
100
AcDbEntity
8
0
100
AcDbCircle
10
99.346833116168114
20
25.059713659999755
30
0
40
1.349999839999998
210
0
220
0
230
1
0
CIRCLE
5
123
100
AcDbEntity
8
0
100
AcDbCircle
10
99.346833116168114
20
70.159712359999759
30
0
40
1.3499998400000024
210
0
220
0
230
1
0
CIRCLE
5
124
100
AcDbEntity
8
0
100
AcDbCircle
10
54.246834416168113
20
70.159712359999745
30
0
40
1.3499998399999991
210
0
220
0
230
1
0
ENDSEC
0
SECTION
2
OBJECTS
0
DICTIONARY
5
C
100
AcDbDictionary
3
ACAD_GROUP
350
D
3
ACAD_MLINESTYLE
350
17
0
DICTIONARY
5
D
100
AcDbDictionary
0
DICTIONARY
5
1A
330
C
100
AcDbDictionary
0
DICTIONARY
5
17
100
AcDbDictionary
0
ENDSEC
0
EOF
