0
SECTION
2
HEADER
9
$INSUNITS
70
4
9
$ACADVER
1
AC1014
9
$HANDSEED
5
FFFF
0
ENDSEC
0
SECTION
2
TABLES
0
TABLE
2
VPORT
5
8
100
AcDbSymbolTable
0
ENDTAB
0
TABLE
2
LTYPE
5
5
100
AcDbSymbolTable
0
LTYPE
5
14
100
AcDbSymbolTableRecord
100
AcDbLinetypeTableRecord
2
BYBLOCK
70
0
0
LTYPE
5
15
100
AcDbSymbolTableRecord
100
AcDbLinetypeTableRecord
2
BYLAYER
70
0
0
LTYPE
5
16
100
AcDbSymbolTableRecord
100
AcDbLinetypeTableRecord
2
DASHED
70
0
3
Dashed __ __ __ __ __ __ __ __ __ __ __ __ __ _
72
65
73
2
40
0.75
49
0.5
74
0
49
-0.25
74
0
0
ENDTAB
0
TABLE
2
LAYER
5
2
100
AcDbSymbolTable
70
2
0
LAYER
5
50
100
AcDbSymbolTableRecord
100
AcDbLayerTableRecord
2
0
70
0
62
7
6
CONTINUOUS
0
ENDTAB
0
TABLE
2
STYLE
5
3
100
AcDbSymbolTable
70
1
0
STYLE
5
11
100
AcDbSymbolTableRecord
100
AcDbTextStyleTableRecord
2
STANDARD
70
0
0
ENDTAB
0
TABLE
2
VIEW
5
6
100
AcDbSymbolTable
70
0
0
ENDTAB
0
TABLE
2
UCS
5
7
100
AcDbSymbolTable
70
0
0
ENDTAB
0
TABLE
2
APPID
5
9
100
AcDbSymbolTable
70
2
0
APPID
5
12
100
AcDbSymbolTableRecord
100
AcDbRegAppTableRecord
2
ACAD
70
0
0
ENDTAB
0
TABLE
2
DIMSTYLE
5
A
100
AcDbSymbolTable
70
1
0
ENDTAB
0
TABLE
2
BLOCK_RECORD
5
1
100
AcDbSymbolTable
70
1
0
BLOCK_RECORD
5
1F
100
AcDbSymbolTableRecord
100
AcDbBlockTableRecord
2
*MODEL_SPACE
0
BLOCK_RECORD
5
1B
100
AcDbSymbolTableRecord
100
AcDbBlockTableRecord
2
*PAPER_SPACE
0
ENDTAB
0
ENDSEC
0
SECTION
2
BLOCKS
0
BLOCK
5
20
100
AcDbEntity
100
AcDbBlockBegin
2
*MODEL_SPACE
0
ENDBLK
5
21
100
AcDbEntity
100
AcDbBlockEnd
0
BLOCK
5
1C
100
AcDbEntity
100
AcDbBlockBegin
2
*PAPER_SPACE
0
ENDBLK
5
1D
100
AcDbEntity
100
AcDbBlockEnd
0
ENDSEC
0
SECTION
2
ENTITIES
0
LWPOLYLINE
5
100
100
AcDbEntity
8
0
100
AcDbPolyline
90
8
70
1
43
0.0
10
60.98409259106171
20
52.060572027382037
10
62.156882599161712
20
52.060572027382037
42
0.41421356237309509
10
63.156882599161719
20
53.060572027382037
10
63.156882599161719
20
69.292728494382033
42
0.41421356237309509
10
62.156882599161719
20
70.292728494382033
10
60.98409259106171
20
70.292728494382033
42
0.41421356237309509
10
59.984092591061717
20
69.292728494382033
10
59.984092591061717
20
53.06057202738203
42
0.41421356237309509
0
CIRCLE
5
101
100
AcDbEntity
8
0
100
AcDbCircle
10
99.399419713455046
20
25.270835877086885
30
0
40
1.34999984
210
0
220
0
230
1
0
CIRCLE
5
102
100
AcDbEntity
8
0
100
AcDbCircle
10
99.399419713455046
20
70.370834577086882
30
0
40
1.34999984
210
0
220
0
230
1
0
CIRCLE
5
103
100
AcDbEntity
8
0
100
AcDbCircle
10
54.299421013455046
20
70.370834577086882
30
0
40
1.34999984
210
0
220
0
230
1
0
CIRCLE
5
104
100
AcDbEntity
8
0
100
AcDbCircle
10
54.29942101345506
20
25.270835877086878
30
0
40
1.34999984
210
0
220
0
230
1
0
ARC
5
105
100
AcDbEntity
8
0
100
AcDbCircle
10
104.84941742207546
20
24.811132897086861
30
0
40
1.9999999999999973
210
0
220
0
230
1
100
AcDbArc
50
270
51
359.98796519727222
0
LINE
5
106
100
AcDbEntity
8
0
100
AcDbLine
10
106.84941737795575
20
24.810712803224369
30
0
11
106.86538072472048
21
100.80966369403313
31
0
0
ARC
5
107
100
AcDbEntity
8
0
100
AcDbCircle
10
104.8653807688402
20
100.81008378789562
30
0
40
1.9999999999999942
210
0
220
0
230
1
100
AcDbArc
50
-0.012034802727780548
51
89.98796203219878
0
LINE
5
108
100
AcDbEntity
8
0
100
AcDbLine
10
104.86580097318387
20
102.81008374375268
30
0
11
23.85616341225451
21
102.82710404491935
31
0
0
ARC
5
109
100
AcDbEntity
8
0
100
AcDbCircle
10
23.855743207910844
20
100.82710408906226
30
0
40
2.0000000000000044
210
0
220
-0
230
1
100
AcDbArc
50
89.987962032198894
51
179.98793039631659
0
LINE
5
110
100
AcDbEntity
8
0
100
AcDbLine
10
21.855743252286082
20
100.82752539770712
30
0
11
21.83973015902556
21
24.811554205731735
31
0
0
ARC
5
111
100
AcDbEntity
8
0
100
AcDbCircle
10
23.839730114650322
20
24.811132897086875
30
0
40
2.0000000000000044
210
0
220
0
230
1
100
AcDbArc
50
179.98793039631659
51
270
0
LWPOLYLINE
5
112
100
AcDbEntity
8
0
100
AcDbPolyline
90
78
70
1
43
0.0
10
57.139422953455039
20
67.121122217086878
10
52.059422953455041
20
67.121122217086878
10
52.059422953455048
20
65.381122217086883
10
52.459422953455039
20
64.981122217086877
10
52.059422953455048
20
64.581122217086872
10
52.059422953455048
20
62.841122217086877
10
52.459422953455039
20
62.441122217086885
10
52.059422953455048
20
62.04112221708688
10
52.059422953455048
20
60.301122217086878
10
52.459422953455046
20
59.901122217086879
10
52.059422953455048
20
59.501122217086873
10
52.059422953455048
20
57.761122217086879
10
52.459422953455046
20
57.361122217086873
10
52.059422953455048
20
56.961122217086881
10
52.059422953455048
20
55.221122217086879
10
52.459422953455046
20
54.821122217086881
10
52.059422953455048
20
54.421122217086875
10
52.059422953455048
20
52.681122217086873
10
52.459422953455046
20
52.281122217086875
10
52.059422953455048
20
51.881122217086869
10
52.059422953455048
20
50.141122217086874
10
52.459422953455046
20
49.741122217086875
10
52.059422953455048
20
49.341122217086877
10
52.059422953455048
20
47.601122217086875
10
52.459422953455046
20
47.201122217086876
10
52.059422953455048
20
46.801122217086885
10
52.059422953455048
20
45.061122217086876
10
52.459422953455046
20
44.661122217086877
10
52.059422953455048
20
44.261122217086879
10
52.059422953455048
20
42.521122217086869
10
52.459422953455046
20
42.121122217086878
10
52.059422953455048
20
41.721122217086872
10
52.059422953455048
20
39.981122217086877
10
52.459422953455046
20
39.581122217086879
10
52.059422953455048
20
39.18112221708688
10
52.059422953455048
20
37.441122217086871
10
52.459422953455046
20
37.04112221708688
10
52.059422953455048
20
36.641122217086874
10
52.059422953455048
20
34.901122217086879
10
52.459422953455046
20
34.501122217086873
10
56.739422953455048
20
34.501122217086873
10
57.139422953455046
20
34.901122217086879
10
57.139422953455046
20
36.641122217086874
10
56.739422953455048
20
37.04112221708688
10
57.139422953455046
20
37.441122217086871
10
57.139422953455046
20
39.18112221708688
10
56.739422953455048
20
39.581122217086879
10
57.139422953455046
20
39.981122217086877
10
57.139422953455046
20
41.721122217086872
10
56.739422953455048
20
42.121122217086878
10
57.139422953455046
20
42.521122217086869
10
57.139422953455046
20
44.261122217086879
10
56.739422953455048
20
44.661122217086877
10
57.139422953455046
20
45.061122217086876
10
57.139422953455046
20
46.801122217086885
10
56.739422953455048
20
47.201122217086883
10
57.139422953455046
20
47.601122217086882
10
57.139422953455046
20
49.341122217086877
10
56.739422953455048
20
49.741122217086875
10
57.139422953455046
20
50.141122217086874
10
57.139422953455046
20
51.881122217086883
10
56.739422953455048
20
52.281122217086882
10
57.139422953455046
20
52.681122217086873
10
57.139422953455046
20
54.421122217086875
10
56.739422953455048
20
54.821122217086881
10
57.139422953455046
20
55.221122217086879
10
57.139422953455046
20
56.961122217086881
10
56.739422953455048
20
57.361122217086873
10
57.139422953455046
20
57.761122217086879
10
57.139422953455046
20
59.501122217086873
10
56.739422953455048
20
59.901122217086879
10
57.139422953455046
20
60.301122217086878
10
57.139422953455046
20
62.04112221708688
10
56.739422953455048
20
62.441122217086885
10
57.139422953455046
20
62.841122217086877
10
57.139422953455039
20
64.581122217086872
10
56.739422953455048
20
64.981122217086877
10
57.139422953455039
20
65.381122217086883
0
LWPOLYLINE
5
113
100
AcDbEntity
8
0
100
AcDbPolyline
90
4
70
1
43
0.0
10
53.649422953455044
20
43.071122217086881
10
53.009422953455044
20
43.071122217086881
10
53.009422953455044
20
43.711122217086881
10
53.649422953455044
20
43.711122217086881
0
LWPOLYLINE
5
114
100
AcDbEntity
8
0
100
AcDbPolyline
90
4
70
1
43
0.0
10
53.649422953455044
20
40.531122217086875
10
53.009422953455044
20
40.531122217086875
10
53.009422953455044
20
41.171122217086875
10
53.649422953455044
20
41.171122217086875
0
LWPOLYLINE
5
115
100
AcDbEntity
8
0
100
AcDbPolyline
90
4
70
1
43
0.0
10
56.18942295345505
20
48.151122217086879
10
55.54942295345505
20
48.151122217086879
10
55.54942295345505
20
48.79112221708688
10
56.18942295345505
20
48.79112221708688
0
LWPOLYLINE
5
116
100
AcDbEntity
8
0
100
AcDbPolyline
90
4
70
1
43
0.0
10
53.649422953455044
20
55.771122217086877
10
53.009422953455044
20
55.771122217086877
10
53.009422953455044
20
56.411122217086877
10
53.649422953455044
20
56.411122217086877
0
LWPOLYLINE
5
117
100
AcDbEntity
8
0
100
AcDbPolyline
90
4
70
1
43
0.0
10
56.189422953455043
20
63.391122217086881
10
55.549422953455043
20
63.391122217086881
10
55.549422953455043
20
64.031122217086875
10
56.189422953455043
20
64.031122217086875
0
LWPOLYLINE
5
118
100
AcDbEntity
8
0
100
AcDbPolyline
90
4
70
1
43
0.0
10
53.649422953455044
20
35.451122217086876
10
53.009422953455044
20
35.451122217086876
10
53.009422953455044
20
36.091122217086877
10
53.649422953455044
20
36.091122217086877
0
LWPOLYLINE
5
119
100
AcDbEntity
8
0
100
AcDbPolyline
90
4
70
1
43
0.0
10
53.649422953455044
20
65.93112221708688
10
53.009422953455044
20
65.93112221708688
10
53.009422953455044
20
66.571122217086881
10
53.649422953455044
20
66.571122217086881
0
LWPOLYLINE
5
120
100
AcDbEntity
8
0
100
AcDbPolyline
90
4
70
1
43
0.0
10
53.649422953455044
20
63.391122217086881
10
53.009422953455044
20
63.391122217086881
10
53.009422953455044
20
64.031122217086875
10
53.649422953455044
20
64.031122217086875
0
LWPOLYLINE
5
121
100
AcDbEntity
8
0
100
AcDbPolyline
90
4
70
1
43
0.0
10
56.18942295345505
20
50.691122217086871
10
55.54942295345505
20
50.691122217086871
10
55.54942295345505
20
51.331122217086872
10
56.18942295345505
20
51.331122217086872
0
LWPOLYLINE
5
122
100
AcDbEntity
8
0
100
AcDbPolyline
90
4
70
1
43
0.0
10
56.18942295345505
20
53.231122217086877
10
55.54942295345505
20
53.231122217086877
10
55.54942295345505
20
53.871122217086878
10
56.18942295345505
20
53.871122217086878
0
LWPOLYLINE
5
123
100
AcDbEntity
8
0
100
AcDbPolyline
90
4
70
1
43
0.0
10
56.18942295345505
20
35.451122217086876
10
55.54942295345505
20
35.451122217086876
10
55.54942295345505
20
36.091122217086877
10
56.18942295345505
20
36.091122217086877
0
LWPOLYLINE
5
124
100
AcDbEntity
8
0
100
AcDbPolyline
90
4
70
1
43
0.0
10
53.649422953455044
20
53.231122217086877
10
53.009422953455044
20
53.231122217086877
10
53.009422953455044
20
53.871122217086878
10
53.649422953455044
20
53.871122217086878
0
LWPOLYLINE
5
125
100
AcDbEntity
8
0
100
AcDbPolyline
90
4
70
1
43
0.0
10
56.18942295345505
20
40.531122217086875
10
55.54942295345505
20
40.531122217086875
10
55.54942295345505
20
41.171122217086875
10
56.18942295345505
20
41.171122217086875
0
LWPOLYLINE
5
126
100
AcDbEntity
8
0
100
AcDbPolyline
90
4
70
1
43
0.0
10
53.649422953455044
20
37.991122217086883
10
53.009422953455044
20
37.991122217086883
10
53.009422953455044
20
38.631122217086883
10
53.649422953455044
20
38.631122217086883
0
LWPOLYLINE
5
127
100
AcDbEntity
8
0
100
AcDbPolyline
90
4
70
1
43
0.0
10
53.649422953455044
20
60.851122217086875
10
53.009422953455044
20
60.851122217086875
10
53.009422953455044
20
61.491122217086875
10
53.649422953455044
20
61.491122217086875
0
LWPOLYLINE
5
128
100
AcDbEntity
8
0
100
AcDbPolyline
90
4
70
1
43
0.0
10
56.18942295345505
20
45.611122217086873
10
55.54942295345505
20
45.611122217086873
10
55.54942295345505
20
46.251122217086873
10
56.18942295345505
20
46.251122217086873
0
LWPOLYLINE
5
129
100
AcDbEntity
8
0
100
AcDbPolyline
90
4
70
1
43
0.0
10
53.649422953455044
20
58.311122217086876
10
53.009422953455044
20
58.311122217086876
10
53.009422953455044
20
58.951122217086876
10
53.649422953455044
20
58.951122217086876
0
LWPOLYLINE
5
130
100
AcDbEntity
8
0
100
AcDbPolyline
90
4
70
1
43
0.0
10
53.649422953455044
20
45.611122217086873
10
53.009422953455044
20
45.611122217086873
10
53.009422953455044
20
46.251122217086873
10
53.649422953455044
20
46.251122217086873
0
LWPOLYLINE
5
131
100
AcDbEntity
8
0
100
AcDbPolyline
90
4
70
1
43
0.0
10
56.189422953455043
20
60.851122217086875
10
55.549422953455043
20
60.851122217086875
10
55.549422953455043
20
61.491122217086875
10
56.189422953455043
20
61.491122217086875
0
LWPOLYLINE
5
132
100
AcDbEntity
8
0
100
AcDbPolyline
90
4
70
1
43
0.0
10
53.649422953455044
20
48.151122217086879
10
53.009422953455044
20
48.151122217086879
10
53.009422953455044
20
48.79112221708688
10
53.649422953455044
20
48.79112221708688
0
LWPOLYLINE
5
133
100
AcDbEntity
8
0
100
AcDbPolyline
90
4
70
1
43
0.0
10
53.649422953455044
20
50.691122217086871
10
53.009422953455044
20
50.691122217086871
10
53.009422953455044
20
51.331122217086872
10
53.649422953455044
20
51.331122217086872
0
LWPOLYLINE
5
134
100
AcDbEntity
8
0
100
AcDbPolyline
90
4
70
1
43
0.0
10
56.18942295345505
20
43.071122217086881
10
55.54942295345505
20
43.071122217086881
10
55.54942295345505
20
43.711122217086881
10
56.18942295345505
20
43.711122217086881
0
LWPOLYLINE
5
135
100
AcDbEntity
8
0
100
AcDbPolyline
90
4
70
1
43
0.0
10
56.189422953455043
20
58.311122217086876
10
55.549422953455043
20
58.311122217086876
10
55.549422953455043
20
58.951122217086876
10
56.189422953455043
20
58.951122217086876
0
LWPOLYLINE
5
136
100
AcDbEntity
8
0
100
AcDbPolyline
90
4
70
1
43
0.0
10
56.189422953455043
20
65.93112221708688
10
55.549422953455043
20
65.93112221708688
10
55.549422953455043
20
66.571122217086881
10
56.189422953455043
20
66.571122217086881
0
LWPOLYLINE
5
137
100
AcDbEntity
8
0
100
AcDbPolyline
90
4
70
1
43
0.0
10
56.18942295345505
20
37.991122217086883
10
55.54942295345505
20
37.991122217086883
10
55.54942295345505
20
38.631122217086883
10
56.18942295345505
20
38.631122217086883
0
LWPOLYLINE
5
138
100
AcDbEntity
8
0
100
AcDbPolyline
90
4
70
1
43
0.0
10
56.189422953455043
20
55.771122217086877
10
55.549422953455043
20
55.771122217086877
10
55.549422953455043
20
56.411122217086877
10
56.189422953455043
20
56.411122217086877
0
LINE
5
139
100
AcDbEntity
8
0
100
AcDbLine
10
57.889422953455053
20
23.186132897086868
30
0
11
57.889422953455053
21
43.516128377079156
31
0
0
LINE
5
140
100
AcDbEntity
8
0
100
AcDbLine
10
58.264422953455046
20
43.891128377079156
30
0
11
74.655837573453226
21
43.891128377079127
31
0
0
LINE
5
141
100
AcDbEntity
8
0
100
AcDbLine
10
75.030837573453212
20
43.516128377079127
30
0
11
75.030837573453212
21
42.236027134854183
31
0
0
LINE
5
142
100
AcDbEntity
8
0
100
AcDbLine
10
75.405837573453226
20
41.861027134854183
30
0
11
82.627154186051186
21
41.861027134854183
31
0
0
LINE
5
143
100
AcDbEntity
8
0
100
AcDbLine
10
83.0021541860512
20
41.486027134854183
30
0
11
83.0021541860512
21
23.186132897086861
31
0
0
LINE
5
144
100
AcDbEntity
8
0
100
AcDbLine
10
23.839730114650322
20
22.811132897086868
30
0
11
57.514422953455046
21
22.811132897086868
31
0
0
LINE
5
145
100
AcDbEntity
8
0
100
AcDbLine
10
83.3771541860512
20
22.811132897086864
30
0
11
104.84941742207546
21
22.811132897086864
31
0
0
ARC
5
146
100
AcDbEntity
8
0
100
AcDbCircle
10
57.514422953455046
20
23.186132897086868
30
0
40
0.37500000000000089
210
-0
220
0
230
1
100
AcDbArc
50
-90
51
0
0
ARC
5
147
100
AcDbEntity
8
0
100
AcDbCircle
10
83.3771541860512
20
23.186132897086861
30
0
40
0.37499999999999645
210
0
220
0
230
1
100
AcDbArc
50
180
51
270
0
ARC
5
148
100
AcDbEntity
8
0
100
AcDbCircle
10
82.6271541860512
20
41.486027134854183
30
0
40
0.37499999999999645
210
0
220
-0
230
1
100
AcDbArc
50
0
51
90.000000000002174
0
ARC
5
149
100
AcDbEntity
8
0
100
AcDbCircle
10
75.405837573453212
20
42.236027134854183
30
0
40
0.37499999999999645
210
0
220
0
230
1
100
AcDbArc
50
180
51
270.00000000000222
0
ARC
5
150
100
AcDbEntity
8
0
100
AcDbCircle
10
58.264422953455046
20
43.516128377079156
30
0
40
0.37499999999999645
210
0
220
-0
230
1
100
AcDbArc
50
90
51
180
0
ARC
5
151
100
AcDbEntity
8
0
100
AcDbCircle
10
74.655837573453226
20
43.516128377079127
30
0
40
0.37499999999999645
210
0
220
-0
230
1
100
AcDbArc
50
0
51
90
0
LWPOLYLINE
5
152
100
AcDbEntity
8
0
100
AcDbPolyline
90
78
70
1
43
0.0
10
96.55942031345505
20
34.901122217086879
10
101.63942031345505
20
34.901122217086879
10
101.63942031345505
20
36.641122217086881
10
101.23942031345506
20
37.04112221708688
10
101.63942031345505
20
37.441122217086885
10
101.63942031345505
20
39.18112221708688
10
101.23942031345506
20
39.581122217086879
10
101.63942031345505
20
39.981122217086877
10
101.63942031345505
20
41.721122217086879
10
101.23942031345506
20
42.121122217086878
10
101.63942031345505
20
42.521122217086884
10
101.63942031345505
20
44.261122217086886
10
101.23942031345506
20
44.661122217086877
10
101.63942031345505
20
45.06112221708689
10
101.63942031345505
20
46.801122217086885
10
101.23942031345506
20
47.201122217086883
10
101.63942031345505
20
47.601122217086882
10
101.63942031345505
20
49.341122217086884
10
101.23942031345504
20
49.741122217086883
10
101.63942031345505
20
50.141122217086874
10
101.63942031345505
20
51.881122217086883
10
101.23942031345504
20
52.281122217086882
10
101.63942031345505
20
52.68112221708688
10
101.63942031345505
20
54.421122217086889
10
101.23942031345504
20
54.821122217086888
10
101.63942031345505
20
55.221122217086887
10
101.63942031345505
20
56.961122217086881
10
101.23942031345504
20
57.36112221708688
10
101.63942031345505
20
57.761122217086879
10
101.63942031345505
20
59.501122217086873
10
101.23942031345504
20
59.901122217086886
10
101.63942031345505
20
60.301122217086878
10
101.63942031345505
20
62.04112221708688
10
101.23942031345504
20
62.441122217086885
10
101.63942031345505
20
62.841122217086884
10
101.63942031345505
20
64.581122217086886
10
101.23942031345504
20
64.981122217086877
10
101.63942031345505
20
65.381122217086883
10
101.63942031345505
20
67.121122217086878
10
101.23942031345504
20
67.521122217086884
10
96.959420313455041
20
67.521122217086884
10
96.559420313455036
20
67.121122217086878
10
96.559420313455036
20
65.381122217086883
10
96.959420313455041
20
64.981122217086877
10
96.559420313455036
20
64.581122217086886
10
96.559420313455036
20
62.841122217086884
10
96.959420313455041
20
62.441122217086885
10
96.559420313455036
20
62.04112221708688
10
96.559420313455036
20
60.301122217086878
10
96.959420313455041
20
59.901122217086886
10
96.559420313455036
20
59.501122217086873
10
96.559420313455036
20
57.761122217086879
10
96.959420313455041
20
57.36112221708688
10
96.559420313455036
20
56.961122217086881
10
96.559420313455036
20
55.221122217086879
10
96.959420313455041
20
54.821122217086881
10
96.559420313455036
20
54.421122217086889
10
96.559420313455036
20
52.68112221708688
10
96.959420313455041
20
52.281122217086882
10
96.559420313455036
20
51.881122217086883
10
96.559420313455036
20
50.141122217086874
10
96.959420313455041
20
49.741122217086875
10
96.559420313455036
20
49.341122217086877
10
96.559420313455036
20
47.601122217086882
10
96.959420313455041
20
47.201122217086883
10
96.559420313455036
20
46.801122217086885
10
96.559420313455036
20
45.06112221708689
10
96.959420313455041
20
44.661122217086877
10
96.55942031345505
20
44.261122217086886
10
96.55942031345505
20
42.521122217086884
10
96.959420313455041
20
42.121122217086878
10
96.55942031345505
20
41.721122217086879
10
96.55942031345505
20
39.981122217086877
10
96.959420313455041
20
39.581122217086879
10
96.55942031345505
20
39.18112221708688
10
96.55942031345505
20
37.441122217086885
10
96.959420313455041
20
37.04112221708688
10
96.55942031345505
20
36.641122217086881
0
LWPOLYLINE
5
153
100
AcDbEntity
8
0
100
AcDbPolyline
90
4
70
1
43
0.0
10
100.04942031345504
20
58.951122217086876
10
100.68942031345503
20
58.951122217086876
10
100.68942031345503
20
58.311122217086876
10
100.04942031345504
20
58.311122217086876
0
LWPOLYLINE
5
154
100
AcDbEntity
8
0
100
AcDbPolyline
90
4
70
1
43
0.0
10
100.04942031345504
20
61.491122217086883
10
100.68942031345503
20
61.491122217086883
10
100.68942031345503
20
60.851122217086882
10
100.04942031345504
20
60.851122217086882
0
LWPOLYLINE
5
155
100
AcDbEntity
8
0
100
AcDbPolyline
90
4
70
1
43
0.0
10
97.509420313455038
20
53.871122217086878
10
98.149420313455039
20
53.871122217086878
10
98.149420313455039
20
53.231122217086877
10
97.509420313455038
20
53.231122217086877
0
LWPOLYLINE
5
156
100
AcDbEntity
8
0
100
AcDbPolyline
90
4
70
1
43
0.0
10
100.04942031345504
20
46.251122217086888
10
100.68942031345503
20
46.251122217086888
10
100.68942031345503
20
45.611122217086887
10
100.04942031345504
20
45.611122217086887
0
LWPOLYLINE
5
157
100
AcDbEntity
8
0
100
AcDbPolyline
90
4
70
1
43
0.0
10
97.509420313455038
20
38.631122217086883
10
98.149420313455039
20
38.631122217086883
10
98.149420313455039
20
37.991122217086883
10
97.509420313455038
20
37.991122217086883
0
LWPOLYLINE
5
158
100
AcDbEntity
8
0
100
AcDbPolyline
90
4
70
1
43
0.0
10
100.04942031345504
20
66.571122217086881
10
100.68942031345503
20
66.571122217086881
10
100.68942031345503
20
65.93112221708688
10
100.04942031345504
20
65.93112221708688
0
LWPOLYLINE
5
159
100
AcDbEntity
8
0
100
AcDbPolyline
90
4
70
1
43
0.0
10
100.04942031345504
20
36.091122217086877
10
100.68942031345503
20
36.091122217086877
10
100.68942031345503
20
35.451122217086883
10
100.04942031345506
20
35.451122217086883
0
LWPOLYLINE
5
160
100
AcDbEntity
8
0
100
AcDbPolyline
90
4
70
1
43
0.0
10
100.04942031345504
20
38.631122217086883
10
100.68942031345503
20
38.631122217086883
10
100.68942031345503
20
37.991122217086883
10
100.04942031345504
20
37.991122217086883
0
LWPOLYLINE
5
161
100
AcDbEntity
8
0
100
AcDbPolyline
90
4
70
1
43
0.0
10
97.509420313455038
20
51.331122217086886
10
98.149420313455039
20
51.331122217086886
10
98.149420313455039
20
50.691122217086885
10
97.509420313455038
20
50.691122217086885
0
LWPOLYLINE
5
162
100
AcDbEntity
8
0
100
AcDbPolyline
90
4
70
1
43
0.0
10
97.509420313455038
20
48.79112221708688
10
98.149420313455039
20
48.79112221708688
10
98.149420313455039
20
48.151122217086879
10
97.509420313455038
20
48.151122217086879
0
LWPOLYLINE
5
163
100
AcDbEntity
8
0
100
AcDbPolyline
90
4
70
1
43
0.0
10
97.509420313455038
20
66.571122217086881
10
98.149420313455039
20
66.571122217086881
10
98.149420313455039
20
65.93112221708688
10
97.509420313455038
20
65.93112221708688
0
LWPOLYLINE
5
164
100
AcDbEntity
8
0
100
AcDbPolyline
90
4
70
1
43
0.0
10
100.04942031345504
20
48.79112221708688
10
100.68942031345503
20
48.79112221708688
10
100.68942031345503
20
48.151122217086879
10
100.04942031345504
20
48.151122217086879
0
LWPOLYLINE
5
165
100
AcDbEntity
8
0
100
AcDbPolyline
90
4
70
1
43
0.0
10
97.509420313455038
20
61.491122217086883
10
98.149420313455039
20
61.491122217086883
10
98.149420313455039
20
60.851122217086882
10
97.509420313455038
20
60.851122217086882
0
LWPOLYLINE
5
166
100
AcDbEntity
8
0
100
AcDbPolyline
90
4
70
1
43
0.0
10
100.04942031345504
20
64.031122217086875
10
100.68942031345503
20
64.031122217086875
10
100.68942031345503
20
63.391122217086881
10
100.04942031345504
20
63.391122217086881
0
LWPOLYLINE
5
167
100
AcDbEntity
8
0
100
AcDbPolyline
90
4
70
1
43
0.0
10
100.04942031345504
20
41.171122217086882
10
100.68942031345503
20
41.171122217086882
10
100.68942031345503
20
40.531122217086882
10
100.04942031345504
20
40.531122217086882
0
LWPOLYLINE
5
168
100
AcDbEntity
8
0
100
AcDbPolyline
90
4
70
1
43
0.0
10
97.509420313455038
20
56.411122217086884
10
98.149420313455039
20
56.411122217086884
10
98.149420313455039
20
55.771122217086884
10
97.509420313455038
20
55.771122217086884
0
LWPOLYLINE
5
169
100
AcDbEntity
8
0
100
AcDbPolyline
90
4
70
1
43
0.0
10
100.04942031345504
20
43.711122217086881
10
100.68942031345503
20
43.711122217086881
10
100.68942031345503
20
43.071122217086881
10
100.04942031345504
20
43.071122217086881
0
LWPOLYLINE
5
170
100
AcDbEntity
8
0
100
AcDbPolyline
90
4
70
1
43
0.0
10
100.04942031345504
20
56.411122217086884
10
100.68942031345503
20
56.411122217086884
10
100.68942031345503
20
55.771122217086884
10
100.04942031345504
20
55.771122217086884
0
LWPOLYLINE
5
171
100
AcDbEntity
8
0
100
AcDbPolyline
90
4
70
1
43
0.0
10
97.509420313455038
20
41.171122217086882
10
98.149420313455039
20
41.171122217086882
10
98.149420313455039
20
40.531122217086882
10
97.509420313455038
20
40.531122217086882
0
LWPOLYLINE
5
172
100
AcDbEntity
8
0
100
AcDbPolyline
90
4
70
1
43
0.0
10
100.04942031345504
20
53.871122217086878
10
100.68942031345503
20
53.871122217086878
10
100.68942031345503
20
53.231122217086877
10
100.04942031345504
20
53.231122217086877
0
LWPOLYLINE
5
173
100
AcDbEntity
8
0
100
AcDbPolyline
90
4
70
1
43
0.0
10
100.04942031345504
20
51.331122217086886
10
100.68942031345503
20
51.331122217086886
10
100.68942031345503
20
50.691122217086885
10
100.04942031345504
20
50.691122217086885
0
LWPOLYLINE
5
174
100
AcDbEntity
8
0
100
AcDbPolyline
90
4
70
1
43
0.0
10
97.509420313455038
20
58.951122217086876
10
98.149420313455039
20
58.951122217086876
10
98.149420313455039
20
58.311122217086876
10
97.509420313455038
20
58.311122217086876
0
LWPOLYLINE
5
175
100
AcDbEntity
8
0
100
AcDbPolyline
90
4
70
1
43
0.0
10
97.509420313455038
20
43.711122217086881
10
98.149420313455039
20
43.711122217086881
10
98.149420313455039
20
43.071122217086881
10
97.509420313455038
20
43.071122217086881
0
LWPOLYLINE
5
176
100
AcDbEntity
8
0
100
AcDbPolyline
90
4
70
1
43
0.0
10
97.509420313455038
20
36.091122217086877
10
98.149420313455039
20
36.091122217086877
10
98.149420313455039
20
35.451122217086883
10
97.509420313455038
20
35.451122217086883
0
LWPOLYLINE
5
177
100
AcDbEntity
8
0
100
AcDbPolyline
90
4
70
1
43
0.0
10
97.509420313455038
20
64.031122217086875
10
98.149420313455039
20
64.031122217086875
10
98.149420313455039
20
63.391122217086881
10
97.509420313455038
20
63.391122217086881
0
LWPOLYLINE
5
178
100
AcDbEntity
8
0
100
AcDbPolyline
90
4
70
1
43
0.0
10
97.509420313455038
20
46.251122217086888
10
98.149420313455039
20
46.251122217086888
10
98.149420313455039
20
45.611122217086887
10
97.509420313455038
20
45.611122217086887
0
ENDSEC
0
SECTION
2
OBJECTS
0
DICTIONARY
5
C
100
AcDbDictionary
3
ACAD_GROUP
350
D
3
ACAD_MLINESTYLE
350
17
0
DICTIONARY
5
D
100
AcDbDictionary
0
DICTIONARY
5
1A
330
C
100
AcDbDictionary
0
DICTIONARY
5
17
100
AcDbDictionary
0
ENDSEC
0
EOF
